<svg width="269" height="40" viewBox="0 0 269 40" fill="none" xmlns="http://www.w3.org/2000/svg">
<path fill-rule="evenodd" clip-rule="evenodd" d="M269 29.6377C269 34.5055 264.963 36 259.718 36C257.312 36 254.092 35.5279 252.456 35.1887L253.144 30.8333C254.908 31.303 257.957 31.8581 260.32 31.8581C263.244 31.8581 263.76 31.2603 263.76 29.7658C263.76 28.3994 263.674 28.0128 260.32 27.1612C253.488 25.3678 252.542 24.0014 252.542 20.2011C252.542 16.0165 254.949 14.1377 260.666 14.1377C261.955 14.1377 266.338 14.3939 267.797 14.6501L267.327 18.8774C264.488 18.365 262.557 18.1942 260.707 18.1942C258.214 18.1942 257.787 18.6212 257.787 19.6887C257.787 20.7989 258.128 21.2259 260.666 21.8664C268.699 23.9587 269 25.3251 269 29.6377ZM249.405 14.4793L249.105 19.3898C247.646 19.0482 244.636 18.6639 242.745 18.6639C239.696 18.6639 238.749 19.9449 238.749 25.0689C238.749 30.5771 239.997 31.5165 242.962 31.5165C244.38 31.5165 246.958 31.2603 248.804 30.7883L249.276 35.4876C247.515 35.8268 245.323 36 242.745 36C235.614 36 233.208 32.157 233.208 25.0689C233.208 17.8099 236.041 14.1377 242.745 14.1377C245.28 14.1377 247.3 14.2231 249.405 14.4793ZM223.795 25.0689C223.795 19.7741 222.806 18.6212 219.5 18.6212C216.189 18.6212 215.203 19.7741 215.203 25.0689C215.203 30.3636 216.189 31.5165 219.5 31.5165C222.806 31.5165 223.795 30.3636 223.795 25.0689ZM229.34 25.0689C229.34 32.667 226.33 36 219.5 36C212.665 36 209.66 32.667 209.66 25.0689C209.66 17.4683 212.665 14.1377 219.5 14.1377C226.33 14.1377 229.34 17.4683 229.34 25.0689ZM199.819 20.5C199.819 11.9601 199.39 10.2948 193.286 10.2948H189.163V30.7052H193.157C199.519 30.7052 199.819 28.3568 199.819 20.5ZM205.618 20.5427C205.618 29.8916 205.191 35.4876 193.245 35.4876H183.576V5.5124H193.245C203.641 5.5124 205.618 10.2521 205.618 20.5427ZM178.42 35.4876H173.003V21.2259C173.003 19.4752 172.232 18.8774 171.113 18.8774C170.041 18.8774 168.792 19.4752 167.591 20.3292V35.4876H162.175V21.2259C162.175 19.4752 161.404 18.8774 160.284 18.8774C159.212 18.8774 157.964 19.4325 156.76 20.2438V35.4876H151.348V14.6501H156.073L156.674 16.4008C158.439 15.2052 160.501 14.1377 162.862 14.1377C164.884 14.1377 166.3 15.1198 167.03 16.8278C168.921 15.4614 171.113 14.1377 173.691 14.1377C176.742 14.1377 178.42 16.4435 178.42 20.0303V35.4876ZM141.207 30.1905V26.1364C135.75 25.9656 133.728 26.1791 133.728 29.4669C133.728 30.9614 134.33 32.1143 136.435 32.1143C138.369 32.1143 139.959 31.2176 141.207 30.1905ZM146.447 35.4876H141.895L141.207 33.5234C138.97 35.0606 136.865 35.9146 134.673 35.9146C131.365 35.9146 128.746 34.9752 128.746 30.022C128.746 23.8733 131.365 22.3361 141.207 22.4642V21.3113C141.207 19.8595 141.248 18.4931 138.242 18.4931C135.707 18.4931 132.783 19.1336 130.505 20.0303V15.376C132.826 14.6501 136.395 14.1377 138.369 14.1377C143.399 14.1377 146.447 15.7176 146.447 20.6281V35.4876ZM120.149 23.1901C120.149 19.3044 119.462 18.0234 116.841 18.0234C113.921 18.0234 113.188 19.3044 113.059 23.1901H120.149ZM125.435 26.8623H113.059C113.231 30.7883 114.222 31.6446 117.485 31.6446C119.72 31.6446 122.942 31.2603 125.134 30.6625V35.1033C122.856 35.6584 118.817 36 116.841 36C109.879 36 107.731 33.3099 107.731 25.0689C107.731 17.8953 109.194 14.1377 116.841 14.1377C123.802 14.1377 125.435 16.657 125.435 25.0689V26.8623ZM104.68 19.3471C104.25 19.2617 103.863 19.219 102.746 19.219C100.598 19.219 98.8358 20.2011 97.5466 21.0978V35.4876H92.1347V14.6501H96.8615L97.5466 16.6143C98.8787 15.4187 100.987 14.0096 103.949 14.0096C104.167 14.0096 104.424 14.0523 104.68 14.0523V19.3471ZM87.8352 35.3168C85.9016 35.6584 83.8843 35.8719 81.9053 35.8719C77.2238 35.8719 76.5769 33.5661 76.5769 29.3388V18.9628H73.9127V14.6501H76.5769V9.05647H81.9936V14.6501H87.7087V18.9628H81.9936V28.741C81.9936 30.8737 82.2061 31.3884 83.839 31.3884C84.8297 31.3884 86.2023 31.0468 87.8352 30.4063V35.3168ZM72.1963 26.6061C72.1963 33.4807 68.2835 36 60.8926 36C57.4979 36 54.404 35.5279 52.3008 35.1033L52.6851 29.5096C54.6618 30.1905 58.4432 31.0895 61.1957 31.0895C64.8029 31.0895 66.3069 30.3209 66.3069 27.2466C66.3069 19.9022 52 25.3678 52 13.6253C52 8.88567 54.2751 5 62.5684 5C65.235 5 68.5843 5.3416 70.9071 5.7259L70.561 11.2342C68.4984 10.551 65.4045 9.86777 62.5684 9.86777C59.1737 9.86777 57.9276 10.7645 57.9276 13.1556C57.9276 18.9628 72.1963 14.949 72.1963 26.6061Z" fill="white"/>
<rect width="40" height="40" rx="2" fill="#FF6100"/>
<path fill-rule="evenodd" clip-rule="evenodd" d="M30.5876 11.7701H14.6762C12.9404 11.7701 11.5345 13.2703 11.5345 15.1224V16.3288C11.5345 16.5581 11.3585 16.7482 11.1418 16.7482H8.39272C8.1728 16.7482 8 16.5581 8 16.3288V14.7029C8 11.0004 10.8119 8 14.2835 8H32.3879C32.6047 8 32.7806 8.18536 32.7806 8.41942L30.5876 11.7701ZM25.0175 23.8137H12.6185V20.097C12.6185 18.2465 14.026 16.7448 15.7603 16.7448H28.1592V20.463C28.1592 22.3135 26.7517 23.8137 25.0175 23.8137ZM26.1045 28.7899H10.5057L8.00016 32.1422C8.00016 32.3747 8.1761 32.5616 8.39288 32.5616H26.4972C29.9689 32.5616 32.7807 29.5597 32.7807 25.8587V24.2328C32.7807 24.0019 32.608 23.8134 32.388 23.8134H29.639C29.4238 23.8134 29.2463 24.0019 29.2463 24.2328V25.4377C29.2463 27.2897 27.8403 28.7899 26.1045 28.7899Z" fill="white"/>
</svg>
