<?xml version="1.0" encoding="utf-8"?>
<!-- Generator: Adobe Illustrator 23.0.1, SVG Export Plug-In . SVG Version: 6.00 Build 0)  -->
<svg version="1.1" id="레이어_1" xmlns="http://www.w3.org/2000/svg" xmlns:xlink="http://www.w3.org/1999/xlink" x="0px"
	 y="0px" viewBox="0 0 1366 207" xml:space="preserve">
<style type="text/css">
	.st0{fill-rule:evenodd;clip-rule:evenodd;fill:#1A0B08;}
	.st1{fill-rule:evenodd;clip-rule:evenodd;fill:#EA5F1A;}
	.st2{fill-rule:evenodd;clip-rule:evenodd;fill:#FFFFFF;}
</style>
<g>
	<g id="Logo_46_" transform="translate(4.000000, 4.000000)">
		<path id="Typelogo" class="st0" d="M1357,147.3c0,24.5-20.4,32.1-46.8,32.1c-12.1,0-28.4-2.4-36.6-4.1l3.5-22
			c8.9,2.4,24.3,5.2,36.2,5.2c14.7,0,17.3-3,17.3-10.5c0-6.9-0.4-8.8-17.3-13.1c-34.5-9-39.2-15.9-39.2-35.1
			c0-21.1,12.1-30.6,41-30.6c6.5,0,28.6,1.3,36,2.6l-2.4,21.3c-14.3-2.6-24.1-3.4-33.4-3.4c-12.6,0-14.7,2.2-14.7,7.5
			c0,5.6,1.7,7.8,14.5,11C1355.5,118.6,1357,125.5,1357,147.3z M1258.2,70.8l-1.5,24.8c-7.4-1.7-22.5-3.7-32.1-3.7
			c-15.4,0-20.2,6.5-20.2,32.3c0,27.8,6.3,32.5,21.2,32.5c7.2,0,20.2-1.3,29.5-3.7l2.4,23.7c-8.9,1.7-19.9,2.6-32.9,2.6
			c-36,0-48.1-19.4-48.1-55.1c0-36.6,14.3-55.1,48.1-55.1C1237.4,69.1,1247.6,69.5,1258.2,70.8z M1129.1,124.2
			c0-26.7-5-32.5-21.7-32.5c-16.7,0-21.7,5.8-21.7,32.5s5,32.5,21.7,32.5C1124.1,156.7,1129.1,150.9,1129.1,124.2z M1157,124.2
			c0,38.3-15.2,55.1-49.6,55.1c-34.5,0-49.6-16.8-49.6-55.1c0-38.3,15.2-55.1,49.6-55.1C1141.8,69.1,1157,85.9,1157,124.2z
			 M1008.2,101.2c0-43.1-2.2-51.5-32.9-51.5h-20.8v102.9h20.1C1006.7,152.6,1008.2,140.8,1008.2,101.2z M1037.4,101.4
			c0,47.1-2.2,75.4-62.4,75.4h-48.8V25.6H975C1027.4,25.6,1037.4,49.5,1037.4,101.4z M900.3,176.8H873v-71.9
			c0-8.8-3.9-11.8-9.5-11.8c-5.4,0-11.7,3-17.8,7.3v76.4h-27.3v-71.9c0-8.8-3.9-11.8-9.5-11.8c-5.4,0-11.7,2.8-17.8,6.9v76.9h-27.3
			V71.7h23.8l3,8.8c8.9-6,19.3-11.4,31.2-11.4c10.2,0,17.3,5,21,13.6c9.5-6.9,20.6-13.6,33.6-13.6c15.4,0,23.8,11.6,23.8,29.7V176.8
			z M712.6,150v-20.4c-27.5-0.9-37.7,0.2-37.7,16.8c0,7.5,3,13.3,13.7,13.3C698.3,159.8,706.3,155.2,712.6,150z M739.1,176.8h-23
			l-3.5-9.9c-11.3,7.8-21.9,12.1-32.9,12.1c-16.7,0-29.9-4.7-29.9-29.7c0-31,13.2-38.8,62.8-38.1v-5.8c0-7.3,0.2-14.2-15-14.2
			c-12.8,0-27.5,3.2-39,7.8V75.4c11.7-3.7,29.7-6.2,39.7-6.2c25.4,0,40.7,8,40.7,32.7V176.8z M606.5,114.8
			c0-19.6-3.5-26.1-16.7-26.1c-14.7,0-18.4,6.5-19.1,26.1H606.5z M633.1,133.3h-62.4c0.9,19.8,5.9,24.1,22.3,24.1
			c11.3,0,27.5-1.9,38.6-5v22.4c-11.5,2.8-31.9,4.5-41.8,4.5c-35.1,0-45.9-13.6-45.9-55.1c0-36.2,7.4-55.1,45.9-55.1
			c35.1,0,43.3,12.7,43.3,55.1V133.3z M528.5,95.4c-2.2-0.4-4.1-0.6-9.8-0.6c-10.8,0-19.7,5-26.2,9.5v72.6h-27.3V71.7H489l3.5,9.9
			c6.7-6,17.3-13.1,32.3-13.1c1.1,0,2.4,0.2,3.7,0.2V95.4z M443.5,175.9c-9.8,1.7-19.9,2.8-29.9,2.8c-23.6,0-26.9-11.6-26.9-32.9
			V93.4h-13.4V71.7h13.4V43.5h27.3v28.2h28.8v21.7h-28.8v49.3c0,10.8,1.1,13.3,9.3,13.3c5,0,11.9-1.7,20.2-5V175.9z M364.7,132
			c0,34.7-19.7,47.4-57,47.4c-17.1,0-32.7-2.4-43.3-4.5l1.9-28.2c10,3.4,29,8,42.9,8c18.2,0,25.8-3.9,25.8-19.4
			c0-37-72.1-9.5-72.1-68.7c0-23.9,11.5-43.5,53.3-43.5c13.4,0,30.3,1.7,42,3.7l-1.7,27.8c-10.4-3.4-26-6.9-40.3-6.9
			c-17.1,0-23.4,4.5-23.4,16.6C292.7,93.4,364.7,73.2,364.7,132z"/>
		<g id="Symbol_49_">
			<path id="Rectangle_57_" class="st1" d="M10.7-2.2h181.5c5.6,0,10.1,4.5,10.1,10.1v181.5c0,5.6-4.5,10.1-10.1,10.1H10.7
				c-5.6,0-10.1-4.5-10.1-10.1V7.9C0.6,2.3,5.1-2.2,10.7-2.2z"/>
			<path id="Combined-Shape_7_" class="st2" d="M123.3,114.3H59.6V95.2c0-9.5,7.2-17.2,16.1-17.2h63.6v19.1
				C139.4,106.6,132.2,114.3,123.3,114.3z M151.9,52.5H70.2c-8.9,0-16.1,7.7-16.1,17.2v6.2c0,1.2-0.9,2.2-2,2.2H37.9
				c-1.1,0-2-1-2-2.2v-8.3c0-19,14.4-34.4,32.2-34.4h92.9c1.1,0,2,1,2,2.2L151.9,52.5z M48.8,139.8h80.1c8.9,0,16.1-7.7,16.1-17.2
				v-6.2c0-1.2,0.9-2.2,2-2.2h14.1c1.1,0,2,1,2,2.2v8.3c0,19-14.4,34.4-32.2,34.4H37.9c-1.1,0-2-1-2-2.2L48.8,139.8z"/>
		</g>
	</g>
</g>
</svg>
