<?xml version="1.0" encoding="UTF-8"?>
<svg width="26px" height="26px" viewBox="0 0 26 26" version="1.1" xmlns="http://www.w3.org/2000/svg" xmlns:xlink="http://www.w3.org/1999/xlink">
  <g transform="translate(6,6)">
    <path d="M9.39,7.00 L13.50,2.89 C14.16,2.23 14.16,1.15 13.50,0.49 C12.84,-0.16 11.76,-0.16 11.10,0.49 L7,4.60 L2.89,0.49 C2.23,-0.16 1.15,-0.16 0.49,0.49 C-0.16,1.15 -0.16,2.23 0.49,2.89 L4.60,7.00 L0.49,11.10 C-0.16,11.76 -0.16,12.84 0.49,13.50 C0.82,13.83 1.26,14 1.69,14 C2.13,14 2.56,13.83 2.89,13.50 L7,9.39 L11.10,13.50 C11.43,13.83 11.86,14 12.30,14 C12.73,14 13.17,13.83 13.50,13.50 C14.16,12.84 14.16,11.76 13.50,11.10 L9.39,7.00 Z" fill="#363636"></path>
  </g>
  <circle fill="none" stroke="#363636" stroke-width="2" cx="13" cy="13" r="12"></circle>
</svg>
