<?xml version="1.0" encoding="UTF-8"?>
<svg width="26px" height="26px" viewBox="0 0 26 26" version="1.1" xmlns="http://www.w3.org/2000/svg" xmlns:xlink="http://www.w3.org/1999/xlink">
  <g transform="translate(6,6)">
    <path d="M7.81,0.60 L8.86,3.98 C8.97,4.34 9.30,4.58 9.67,4.58 L13.14,4.58 C13.96,4.58 14.31,5.62 13.66,6.12 L10.78,8.32 C10.50,8.54 10.38,8.91 10.48,9.25 L11.56,12.76 C11.81,13.55 10.89,14.20 10.22,13.69 L7.52,11.62 C7.21,11.38 6.78,11.38 6.47,11.62 L3.77,13.69 C3.10,14.20 2.18,13.55 2.43,12.76 L3.51,9.25 C3.61,8.91 3.49,8.54 3.21,8.32 L0.33,6.12 C-0.31,5.62 0.03,4.58 0.85,4.58 L4.32,4.58 C4.69,4.58 5.02,4.34 5.13,3.98 L6.18,0.60 C6.42,-0.20 7.57,-0.20 7.81,0.60" fill="#363636"></path>
  </g>
  <circle fill="none" stroke="#363636" stroke-width="2" cx="13" cy="13" r="12"></circle>
</svg>
