<svg xmlns="http://www.w3.org/2000/svg" width="90" height="16" viewBox="0 0 90 16">
    <path fill="#FFFFFF" fill-rule="evenodd" d="M17.077 8.98L17.067 7H19.232v2h-2.155v-.02zM1 9V7h1v2H1zm7.462 0V7h6.462v2H8.462zM85.99 7H86v2l-.01-2zm-8.605 2V7h6.462v2h-6.462zm-8.616 0V7h2.154v2h-2.154zm-.01-2h.01v2l-.01-2zm-8.604 2V7h6.46v2h-6.46zM51.54 9V7h2.153v2H51.54zm-.011-2h.01v2l-.01-2zm-8.606 2V7h6.462v2h-6.462zm-8.615 0V7h2.155v2h-2.155zm-.01-2h.01v2l-.01-2zm-8.605 2V7h6.462v2h-6.462zM86 9V7h1.001v2H86z"/>
</svg>
