<svg xmlns="http://www.w3.org/2000/svg" width="90" height="16" viewBox="0 0 90 16">
    <path fill="#FFFFFF" fill-rule="evenodd" d="M1 9V7h1v2H1zm9.781-2h.01v2l-.01-2zM3.954 9V7h4.884v2H3.954zm82.037-2H86v2l-.01-2zm-6.827 2V7h4.883v2h-4.883zm-3.907 0V7h1.954v2h-1.954zm-.01-2h.01v2l-.01-2zm-6.828 2V7h4.883v2h-4.883zm-3.907 0V7h1.954v2h-1.954zm-.01-2h.01v2l-.01-2zm-6.827 2V7h4.883v2h-4.883zm-3.907 0V7h1.954v2h-1.954zm-.01-2h.01v2l-.01-2zM46.93 9V7h4.884v2H46.93zm-3.907 0V7h1.954v2h-1.954zm-.01-2h.01v2l-.01-2zm-6.827 2V7h4.884v2h-4.884zM32.28 9V7h1.953v2H32.28zm-.01-2h.01v2l-.01-2zm-6.827 2V7h4.884v2h-4.884zm-3.907 0V7h1.953v2h-1.953zm-.01-2h.01v2l-.01-2zm-6.828 2V7h4.884v2h-4.884zm-3.906 0V7h1.953v2h-1.953zM86 9V7h1.001v2H86z"/>
</svg>
