<svg xmlns="http://www.w3.org/2000/svg" width="163" height="140" viewBox="0 0 163 140">
    <g fill="none" fill-rule="evenodd">
        <g stroke="#1E1E1E" stroke-linecap="round" stroke-linejoin="round" stroke-width="2.423">
            <path stroke-dasharray="7.689,7.689" d="M111.646 138.797H7.844"/>
            <path d="M3.999 138.796H.212v-3.787"/>
            <path stroke-dasharray="7.553,7.553" d="M.212 127.456V36.847a4.866 4.866 0 0 1 4.865-4.865h113.179a4.867 4.867 0 0 1 4.866 4.865v94.386"/>
            <path d="M123.122 135.01v3.786h-3.788"/>
        </g>
        <path fill="#F4F4F4" d="M162.678 106.815H39.768V4.865A4.866 4.866 0 0 1 44.635 0h113.179a4.866 4.866 0 0 1 4.865 4.866v101.949z"/>
        <path fill="#FFF" d="M138.27 123.647H15.361V21.697a4.865 4.865 0 0 1 4.866-4.864h113.178a4.865 4.865 0 0 1 4.865 4.865v101.949z"/>
        <path stroke="#1E1E1E" stroke-linecap="round" stroke-linejoin="round" stroke-width="2.423" d="M138.27 123.647H15.361V21.697a4.865 4.865 0 0 1 4.866-4.864h113.178a4.865 4.865 0 0 1 4.865 4.865v101.949z"/>
        <path fill="#DADADA" d="M138.27 37.562H15.361V21.699a4.866 4.866 0 0 1 4.866-4.867h113.178a4.866 4.866 0 0 1 4.865 4.866v15.864z"/>
        <path stroke="#1E1E1E" stroke-linecap="round" stroke-linejoin="round" stroke-width="2.423" d="M138.27 37.562H15.361V21.699a4.866 4.866 0 0 1 4.866-4.867h113.178a4.866 4.866 0 0 1 4.865 4.866v15.864z"/>
        <g stroke="#1E1E1E">
            <path stroke-linecap="round" stroke-linejoin="round" stroke-width="2.423" d="M58.603 92.08l5.42 14.855M64.358 91.033l5.08 13.926M69.827 92.807l-13.926 5.08M71.803 98.222l-12.997 4.742"/>
            <path stroke-linecap="round" stroke-width="2.704" d="M80.886 70.88l11.162 10.903M81.015 81.912L91.918 70.75M108.424 70.558l11.161 10.903M108.552 81.59l10.903-11.161"/>
            <path fill="#F4F4F4" d="M80.807 116.883l39.806-.467c-.39-10.76-9.302-19.302-20.13-19.175-10.829.126-19.537 8.875-19.676 19.642z"/>
        </g>
        <path stroke="#000" stroke-linecap="round" stroke-linejoin="round" stroke-width="2.423" d="M80.307 117.39c-.132-11.272 8.898-20.518 20.17-20.649 11.27-.132 20.517 8.898 20.648 20.17l-40.818.478z"/>
        <path fill="#FF6100" d="M29.749 28.05a2.683 2.683 0 1 1-5.365 0 2.683 2.683 0 0 1 5.365 0"/>
        <path fill="#F79F1A" d="M42.918 28.05a2.683 2.683 0 1 1-5.365 0 2.683 2.683 0 0 1 5.365 0"/>
        <path fill="#0C7489" d="M56.087 28.05a2.683 2.683 0 1 1-5.366 0 2.683 2.683 0 0 1 5.366 0"/>
        <path fill="#1E1E1E" d="M27.066 24.105a3.949 3.949 0 0 0-3.944 3.945 3.949 3.949 0 0 0 3.944 3.945 3.95 3.95 0 0 0 3.945-3.945 3.95 3.95 0 0 0-3.945-3.945m0 1.263a2.682 2.682 0 1 1 0 5.364 2.683 2.683 0 1 1 0-5.364M40.235 24.105a3.949 3.949 0 0 0-3.944 3.945 3.949 3.949 0 0 0 3.944 3.945 3.95 3.95 0 0 0 3.945-3.945 3.95 3.95 0 0 0-3.945-3.945m0 1.263a2.683 2.683 0 1 1 .001 5.365 2.683 2.683 0 0 1 0-5.365M53.404 24.105a3.95 3.95 0 0 0-3.945 3.945 3.95 3.95 0 0 0 3.945 3.945 3.95 3.95 0 0 0 3.945-3.945 3.95 3.95 0 0 0-3.945-3.945m0 1.263a2.683 2.683 0 1 1 .001 5.365 2.683 2.683 0 0 1 0-5.365"/>
    </g>
</svg>
